# xmcd CD database file
# Copyright (C) 1993-1998 Ti Kan
#
# Track frame offsets:
# 150
# 10947
# 23220
# 34388
# 46778
# 63485
# 79819
# 96092
# 116907
# 133426
# 152863
# 174267
#
# Disc length: 2648 seconds
# Revision: 0
# Processed by: cddbd v1.4b41PL1 Copyright (c) Steve Scherf et al.
# Submitted via: CDSpectrumPro v3.2.328
#
DISCID=9f0a560c
DTITLE=Professor Longhair - Way Down Yonder In New Orleans
DYEAR=1900
DGENRE=
TTITLE0=Mardi Gras In New Orleans
TTITLE1=Bye Bye Baby
TTITLE2=Professor Longhair's Boogie
TTITLE3=She Ain't Got No Hair
TTITLE4=Big Chief
TTITLE5=The Banana Boat Song
TTITLE6=Tipitina
TTITLE7=Doing It
TTITLE8=Her Mind is Gone
TTITLE9=How Long Has That Train Been Gone
TTITLE10=Bald Head
TTITLE11=Messing Around
EXTD=
EXTT0=
EXTT1=
EXTT2=
EXTT3=
EXTT4=
EXTT5=
EXTT6=
EXTT7=
EXTT8=
EXTT9=
EXTT10=
EXTT11=
PLAYORDER=
